<svg xmlns="http://www.w3.org/2000/svg" width="1200" height="590" viewBox="0 0 1200 590" role="img" aria-labelledby="title desc">
  <title id="title">PawBench v1.0 overall leaderboard</title>
  <desc id="desc">Overall leaderboard matrix for 9 models, 3 harnesses, and 150 PawBench tasks.</desc>
  <defs>
    <style>
      .bg { fill: #ffffff; }
      .panel { fill: #ffffff; stroke: #e5e7eb; stroke-width: 1.2; }
      .tab { fill: #f8fafc; stroke: #e5e7eb; stroke-width: 1; }
      .tab-active { fill: #ecfdf5; stroke: #99f6e4; stroke-width: 1; }
      .title { fill: #111827; font: 700 20px -apple-system, BlinkMacSystemFont, "Segoe UI", sans-serif; }
      .subtitle { fill: #64748b; font: 500 14px -apple-system, BlinkMacSystemFont, "Segoe UI", sans-serif; }
      .label { fill: #334155; font: 600 14px -apple-system, BlinkMacSystemFont, "Segoe UI", sans-serif; }
      .small { fill: #94a3b8; font: 500 11px -apple-system, BlinkMacSystemFont, "Segoe UI", sans-serif; }
      .model { fill: #334155; font: 600 15px -apple-system, BlinkMacSystemFont, "Segoe UI", sans-serif; }
      .score { fill: #ffffff; font: 700 15px -apple-system, BlinkMacSystemFont, "Segoe UI", sans-serif; }
      .avg-score { fill: #ffffff; font: 700 15px -apple-system, BlinkMacSystemFont, "Segoe UI", sans-serif; }
      .delta { fill: #334155; font: 600 14px -apple-system, BlinkMacSystemFont, "Segoe UI", sans-serif; }
      .note { fill: #0f766e; font: 700 12px -apple-system, BlinkMacSystemFont, "Segoe UI", sans-serif; }
      .grid { stroke: #eef2f7; stroke-width: 1; }
    </style>
  </defs>

  <rect class="bg" width="1200" height="590" rx="18"/>

  <g transform="translate(24 22)">
    <rect class="tab-active" x="0" y="0" width="95" height="36" rx="7"/>
    <text class="note" x="16" y="23">Overall</text>
    <text class="small" x="70" y="23">150</text>
    <rect class="tab" x="103" y="0" width="82" height="36" rx="7"/>
    <text class="subtitle" x="120" y="23">Text</text>
    <text class="small" x="155" y="23">124</text>
    <rect class="tab" x="193" y="0" width="115" height="36" rx="7"/>
    <text class="subtitle" x="210" y="23">Multimodal</text>
    <text class="small" x="280" y="23">26</text>
  </g>

  <text class="title" x="24" y="86">PawBench v1.0 Overall Leaderboard</text>
  <text class="subtitle" x="24" y="111">9 models × 3 harnesses × 150 tasks. Scores are averaged over Overall tasks.</text>

  <g transform="translate(20 132)">
    <rect class="panel" x="0" y="0" width="1160" height="430" rx="14"/>

    <rect x="0" y="0" width="1160" height="50" rx="14" fill="#f8fafc"/>
    <line class="grid" x1="0" y1="50" x2="1160" y2="50"/>

    <text class="label" x="24" y="31">MODEL</text>
    <text class="label" x="485" y="25" text-anchor="middle">Hermes</text>
    <text class="small" x="485" y="40" text-anchor="middle">v2026.4.23</text>
    <text class="label" x="665" y="25" text-anchor="middle">OpenClaw</text>
    <text class="small" x="665" y="40" text-anchor="middle">v2026.4.24</text>
    <text class="label" x="845" y="25" text-anchor="middle">QwenPaw</text>
    <text class="small" x="845" y="40" text-anchor="middle">v1.1.3</text>
    <text class="label" x="995" y="31" text-anchor="middle">Average</text>
    <text class="label" x="1115" y="31" text-anchor="middle">”</text>

    <!-- row separators -->
    <g class="grid">
      <line x1="0" y1="92" x2="1160" y2="92"/>
      <line x1="0" y1="134" x2="1160" y2="134"/>
      <line x1="0" y1="176" x2="1160" y2="176"/>
      <line x1="0" y1="218" x2="1160" y2="218"/>
      <line x1="0" y1="260" x2="1160" y2="260"/>
      <line x1="0" y1="302" x2="1160" y2="302"/>
      <line x1="0" y1="344" x2="1160" y2="344"/>
      <line x1="0" y1="386" x2="1160" y2="386"/>
    </g>

    <!-- rows -->
    <g transform="translate(0 50)">
      <text class="model" x="24" y="27">claude-opus-4.6</text>
      <rect x="405" y="8" width="160" height="27" rx="6" fill="#0f766e"/><text class="score" x="485" y="27" text-anchor="middle">78.4</text>
      <rect x="585" y="8" width="160" height="27" rx="6" fill="#107c72"/><text class="score" x="665" y="27" text-anchor="middle">76.1</text>
      <rect x="765" y="8" width="160" height="27" rx="6" fill="#0f766e"/><text class="score" x="845" y="27" text-anchor="middle">78.3</text>
      <rect x="950" y="8" width="90" height="27" rx="6" fill="#0f766e"/><text class="avg-score" x="995" y="27" text-anchor="middle">77.6</text>
      <text class="delta" x="1115" y="27" text-anchor="middle">+2.3</text>
    </g>

    <g transform="translate(0 92)">
      <text class="model" x="24" y="27">deepseek-v4-pro</text>
      <rect x="405" y="8" width="160" height="27" rx="6" fill="#178f80"/><text class="score" x="485" y="27" text-anchor="middle">72.1</text>
      <rect x="585" y="8" width="160" height="27" rx="6" fill="#107a70"/><text class="score" x="665" y="27" text-anchor="middle">76.9</text>
      <rect x="765" y="8" width="160" height="27" rx="6" fill="#117f74"/><text class="score" x="845" y="27" text-anchor="middle">75.6</text>
      <rect x="950" y="8" width="90" height="27" rx="6" fill="#127f74"/><text class="avg-score" x="995" y="27" text-anchor="middle">74.9</text>
      <text class="delta" x="1115" y="27" text-anchor="middle">+4.9</text>
    </g>

    <g transform="translate(0 134)">
      <text class="model" x="24" y="27">qwen3.6-max-preview</text>
      <rect x="190" y="10" width="42" height="22" rx="5" fill="#fef3c7"/><text x="211" y="25" text-anchor="middle" fill="#b45309" font-size="11" font-weight="700">paper</text>
      <rect x="405" y="8" width="160" height="27" rx="6" fill="#25b6a4"/><text class="score" x="485" y="27" text-anchor="middle">68.5</text>
      <rect x="585" y="8" width="160" height="27" rx="6" fill="#0f786d"/><text class="score" x="665" y="27" text-anchor="middle">77.2</text>
      <rect x="765" y="8" width="160" height="27" rx="6" fill="#0f766e"/><text class="score" x="845" y="27" text-anchor="middle">78.9</text>
      <rect x="950" y="8" width="90" height="27" rx="6" fill="#127f74"/><text class="avg-score" x="995" y="27" text-anchor="middle">74.9</text>
      <text class="delta" x="1115" y="27" text-anchor="middle">+10.3</text>
    </g>

    <g transform="translate(0 176)">
      <text class="model" x="24" y="27">qwen3.7-max</text>
      <rect x="133" y="10" width="42" height="22" rx="5" fill="#fef3c7"/><text x="154" y="25" text-anchor="middle" fill="#b45309" font-size="11" font-weight="700">paper</text>
      <rect x="405" y="8" width="160" height="27" rx="6" fill="#178d7f"/><text class="score" x="485" y="27" text-anchor="middle">72.3</text>
      <rect x="585" y="8" width="160" height="27" rx="6" fill="#178b7d"/><text class="score" x="665" y="27" text-anchor="middle">72.5</text>
      <rect x="765" y="8" width="160" height="27" rx="6" fill="#0f786d"/><text class="score" x="845" y="27" text-anchor="middle">77.6</text>
      <rect x="950" y="8" width="90" height="27" rx="6" fill="#138277"/><text class="avg-score" x="995" y="27" text-anchor="middle">74.1</text>
      <text class="delta" x="1115" y="27" text-anchor="middle">+5.4</text>
    </g>

    <g transform="translate(0 218)">
      <text class="model" x="24" y="27">qwen3.6-plus</text>
      <rect x="405" y="8" width="160" height="27" rx="6" fill="#189283"/><text class="score" x="485" y="27" text-anchor="middle">71.4</text>
      <rect x="585" y="8" width="160" height="27" rx="6" fill="#158679"/><text class="score" x="665" y="27" text-anchor="middle">73.6</text>
      <rect x="765" y="8" width="160" height="27" rx="6" fill="#107d72"/><text class="score" x="845" y="27" text-anchor="middle">76.5</text>
      <rect x="950" y="8" width="90" height="27" rx="6" fill="#138377"/><text class="avg-score" x="995" y="27" text-anchor="middle">73.8</text>
      <text class="delta" x="1115" y="27" text-anchor="middle">+5.2</text>
    </g>

    <g transform="translate(0 260)">
      <text class="model" x="24" y="27">qwen3.6-27b</text>
      <rect x="405" y="8" width="160" height="27" rx="6" fill="#20aa99"/><text class="score" x="485" y="27" text-anchor="middle">69.6</text>
      <rect x="585" y="8" width="160" height="27" rx="6" fill="#15877a"/><text class="score" x="665" y="27" text-anchor="middle">73.4</text>
      <rect x="765" y="8" width="160" height="27" rx="6" fill="#168a7c"/><text class="score" x="845" y="27" text-anchor="middle">73.1</text>
      <rect x="950" y="8" width="90" height="27" rx="6" fill="#15897c"/><text class="avg-score" x="995" y="27" text-anchor="middle">72.1</text>
      <text class="delta" x="1115" y="27" text-anchor="middle">+3.8</text>
    </g>

    <g transform="translate(0 302)">
      <text class="model" x="24" y="27">glm-5.1</text>
      <rect x="83" y="10" width="42" height="22" rx="5" fill="#fef3c7"/><text x="104" y="25" text-anchor="middle" fill="#b45309" font-size="11" font-weight="700">paper</text>
      <rect x="405" y="8" width="160" height="27" rx="6" fill="#32c3b0"/><text class="score" x="485" y="27" text-anchor="middle">66.8</text>
      <rect x="585" y="8" width="160" height="27" rx="6" fill="#25b6a4"/><text class="score" x="665" y="27" text-anchor="middle">68.5</text>
      <rect x="765" y="8" width="160" height="27" rx="6" fill="#107c72"/><text class="score" x="845" y="27" text-anchor="middle">76.7</text>
      <rect x="950" y="8" width="90" height="27" rx="6" fill="#1aa091"/><text class="avg-score" x="995" y="27" text-anchor="middle">70.6</text>
      <text class="delta" x="1115" y="27" text-anchor="middle">+9.9</text>
    </g>

    <g transform="translate(0 344)">
      <text class="model" x="24" y="27">kimi-k2.6</text>
      <rect x="405" y="8" width="160" height="27" rx="6" fill="#28bba8"/><text class="score" x="485" y="27" text-anchor="middle">67.7</text>
      <rect x="585" y="8" width="160" height="27" rx="6" fill="#21ad9b"/><text class="score" x="665" y="27" text-anchor="middle">69.3</text>
      <rect x="765" y="8" width="160" height="27" rx="6" fill="#23b09f"/><text class="score" x="845" y="27" text-anchor="middle">68.9</text>
      <rect x="950" y="8" width="90" height="27" rx="6" fill="#22ae9c"/><text class="avg-score" x="995" y="27" text-anchor="middle">68.6</text>
      <text class="delta" x="1115" y="27" text-anchor="middle">+1.6</text>
    </g>

    <g transform="translate(0 386)">
      <text class="model" x="24" y="27">qwen3.6-35b-a3b</text>
      <rect x="405" y="8" width="160" height="27" rx="6" fill="#5eead4"/><text class="score" x="485" y="27" text-anchor="middle">56.7</text>
      <rect x="585" y="8" width="160" height="27" rx="6" fill="#27b8a6"/><text class="score" x="665" y="27" text-anchor="middle">68.3</text>
      <rect x="765" y="8" width="160" height="27" rx="6" fill="#27b8a6"/><text class="score" x="845" y="27" text-anchor="middle">68.3</text>
      <rect x="950" y="8" width="90" height="27" rx="6" fill="#35c7b5"/><text class="avg-score" x="995" y="27" text-anchor="middle">64.4</text>
      <text class="delta" x="1115" y="27" text-anchor="middle">+11.5</text>
    </g>

    <g transform="translate(0 428)">
      <rect x="0" y="-1" width="1160" height="43" rx="0" fill="#f8fafc"/>
      <text class="label" x="24" y="27">Average</text>
      <rect x="405" y="8" width="160" height="27" rx="6" fill="#20aa99"/><text class="score" x="485" y="27" text-anchor="middle">69.3</text>
      <rect x="585" y="8" width="160" height="27" rx="6" fill="#168a7c"/><text class="score" x="665" y="27" text-anchor="middle">72.9</text>
      <rect x="765" y="8" width="160" height="27" rx="6" fill="#127f74"/><text class="score" x="845" y="27" text-anchor="middle">74.9</text>
      <rect x="950" y="8" width="90" height="27" rx="6" fill="#15897c"/><text class="avg-score" x="995" y="27" text-anchor="middle">72.3</text>
    </g>
  </g>
</svg>
